<svg xmlns="http://www.w3.org/2000/svg" viewBox="0 0 300 220"><g transform="translate(150 110)"><circle r="60" fill="#d9e1e8" stroke="#354052" stroke-width="8"/><circle r="14" fill="white" stroke="#354052" stroke-width="7"/><g fill="#354052"><path d="M-9-82 9-82 13-56-13-56Z" transform="rotate(0)"/><path d="M-9-82 9-82 13-56-13-56Z" transform="rotate(30)"/><path d="M-9-82 9-82 13-56-13-56Z" transform="rotate(60)"/><path d="M-9-82 9-82 13-56-13-56Z" transform="rotate(90)"/><path d="M-9-82 9-82 13-56-13-56Z" transform="rotate(120)"/><path d="M-9-82 9-82 13-56-13-56Z" transform="rotate(150)"/><path d="M-9-82 9-82 13-56-13-56Z" transform="rotate(180)"/><path d="M-9-82 9-82 13-56-13-56Z" transform="rotate(210)"/><path d="M-9-82 9-82 13-56-13-56Z" transform="rotate(240)"/><path d="M-9-82 9-82 13-56-13-56Z" transform="rotate(270)"/><path d="M-9-82 9-82 13-56-13-56Z" transform="rotate(300)"/><path d="M-9-82 9-82 13-56-13-56Z" transform="rotate(330)"/></g></g></svg>